<svg xmlns="http://www.w3.org/2000/svg" viewBox="0 0 180 150" fill="none">
<g transform="rotate(-8 90 75)" stroke-linecap="round"><path d="M32 122V87a60 60 0 0 1 120 0" stroke="var(--art-1)" stroke-width="4" /><path d="M38 122V87a54 54 0 0 1 108 0" stroke="var(--art-4)" stroke-width="4" /><path d="M44 122V87a48 48 0 0 1 96 0" stroke="var(--art-2)" stroke-width="4" /><path d="M50 122V87a42 42 0 0 1 84 0" stroke="var(--art-4)" stroke-width="4" /><path d="M56 122V87a36 36 0 0 1 72 0" stroke="var(--art-1)" stroke-width="4" /><path d="M62 122V87a30 30 0 0 1 60 0" stroke="var(--art-4)" stroke-width="4" /><path d="M68 122V87a24 24 0 0 1 48 0" stroke="var(--art-2)" stroke-width="4" /><path d="M74 122V87a18 18 0 0 1 36 0" stroke="var(--art-4)" stroke-width="4" /></g>

</svg>
